<svg width="150" height="117" viewBox="455 0 150 117" fill="none" xmlns="http://www.w3.org/2000/svg">
<path d="M477.612 79.264C475.372 79.264 473.004 78.912 470.508 78.208C468.076 77.568 465.9 76.48 463.98 74.944C462.124 73.408 460.876 71.36 460.236 68.8C460.172 68.48 460.108 68.128 460.044 67.744C460.044 67.36 460.044 66.976 460.044 66.592C460.044 64.608 460.492 62.688 461.388 60.832C462.284 58.976 463.372 57.568 464.652 56.608H464.748C464.876 56.608 465.036 56.768 465.228 57.088C465.484 57.344 465.484 57.536 465.228 57.664C464.588 58.304 464.108 59.04 463.788 59.872C463.532 60.64 463.404 61.472 463.404 62.368C463.404 63.584 463.596 64.832 463.98 66.112C464.428 67.328 464.972 68.384 465.612 69.28C467.212 71.52 469.42 73.312 472.236 74.656C475.116 75.936 477.932 76.576 480.684 76.576C484.46 76.576 487.372 75.456 489.42 73.216C491.532 70.976 492.588 68.224 492.588 64.96C492.588 62.976 492.204 60.992 491.436 59.008C490.412 56.256 489.036 53.568 487.308 50.944C485.644 48.256 484.108 45.632 482.7 43.072C481.484 40.768 480.876 38.432 480.876 36.064C480.876 33.568 481.644 31.168 483.18 28.864C484.716 26.816 486.732 25.184 489.228 23.968C491.788 22.688 494.38 22.048 497.004 22.048C498.796 22.048 500.524 22.368 502.188 23.008C503.852 23.648 505.356 24.704 506.7 26.176C507.084 26.752 507.276 27.488 507.276 28.384C507.276 29.664 507.02 30.656 506.508 31.36C505.932 32.192 505.292 33.28 504.588 34.624C503.884 35.968 503.468 36.896 503.34 37.408C503.212 37.472 502.892 37.6 502.38 37.792C501.932 37.92 501.644 37.888 501.516 37.696C501.772 37.184 502.124 36.256 502.572 34.912C503.02 33.568 503.244 32.352 503.244 31.264C503.244 30.56 503.212 29.792 503.148 28.96C503.148 28.064 502.732 27.296 501.9 26.656C501.132 25.952 500.14 25.344 498.924 24.832C497.708 24.32 496.236 24.064 494.508 24.064C490.988 24.064 488.3 25.088 486.444 27.136C484.588 29.184 483.66 31.424 483.66 33.856C483.66 35.072 483.916 36.288 484.428 37.504C485.388 39.808 486.732 41.984 488.46 44.032C490.188 46.08 491.884 48.192 493.548 50.368C495.276 52.48 496.62 54.784 497.58 57.28C498.22 58.944 498.54 60.64 498.54 62.368C498.54 64.864 497.9 67.136 496.62 69.184C495.404 71.232 493.74 73.024 491.628 74.56C489.58 76.032 487.34 77.184 484.908 78.016C482.476 78.848 480.044 79.264 477.612 79.264ZM506.524 76.768C503.9 76.768 502.076 76.256 501.052 75.232C500.028 74.208 499.516 72.96 499.516 71.488C499.516 69.632 499.996 67.648 500.956 65.536C501.98 63.424 502.94 61.632 503.836 60.16C504.86 58.624 506.236 57.024 507.964 55.36C509.692 53.696 511.58 52.288 513.628 51.136C515.676 49.984 517.66 49.408 519.58 49.408C521.244 49.408 522.396 49.824 523.036 50.656C523.676 51.424 523.996 52.352 523.996 53.44C523.996 55.424 523.388 57.056 522.172 58.336C521.02 59.616 519.58 60.672 517.852 61.504C516.124 62.272 514.46 62.912 512.86 63.424C511.9 63.68 510.78 63.936 509.5 64.192C508.22 64.448 507.004 64.576 505.852 64.576C505.404 65.728 505.052 66.848 504.796 67.936C504.54 69.024 504.412 70.016 504.412 70.912C504.412 72 504.668 72.896 505.18 73.6C505.756 74.304 506.684 74.656 507.964 74.656C508.476 74.656 509.084 74.592 509.788 74.464C510.492 74.336 511.26 74.144 512.092 73.888C514.012 73.248 515.9 72.224 517.756 70.816C519.612 69.408 521.308 67.904 522.844 66.304C524.444 64.64 525.66 63.264 526.492 62.176C526.684 62.368 526.78 62.592 526.78 62.848C526.78 63.168 526.556 63.68 526.108 64.384C524.828 66.176 523.164 68.032 521.116 69.952C519.068 71.872 516.796 73.504 514.3 74.848C511.804 76.128 509.212 76.768 506.524 76.768ZM506.62 62.656C507.452 62.72 508.38 62.72 509.404 62.656C510.492 62.528 511.548 62.304 512.572 61.984C515.196 61.216 517.084 60 518.236 58.336C519.452 56.608 520.06 55.072 520.06 53.728C520.06 52.96 519.9 52.32 519.58 51.808C519.26 51.296 518.748 51.04 518.044 51.04C516.188 51.04 514.524 51.744 513.052 53.152C511.58 54.496 510.3 56.064 509.212 57.856C508.124 59.648 507.26 61.248 506.62 62.656ZM527.07 76.768C524.702 76.768 523.038 76.32 522.078 75.424C521.118 74.528 520.638 73.376 520.638 71.968C520.638 70.112 521.246 68.064 522.462 65.824C523.678 63.52 524.83 61.6 525.918 60.064C527.006 58.592 528.222 57.216 529.566 55.936C530.974 54.592 532.478 53.44 534.078 52.48C535.102 51.84 536.478 51.168 538.206 50.464C539.998 49.696 541.502 49.312 542.718 49.312C544.19 49.312 545.214 49.664 545.79 50.368C546.366 51.008 546.654 51.808 546.654 52.768C546.654 53.536 546.526 54.336 546.27 55.168C546.014 55.936 545.726 56.672 545.406 57.376C545.214 57.76 544.926 58.048 544.542 58.24C544.158 58.368 543.966 58.304 543.966 58.048C543.966 57.728 543.998 57.44 544.062 57.184C544.126 56.928 544.158 56.64 544.158 56.32C544.158 55.104 543.87 53.92 543.294 52.768C542.782 51.552 541.982 50.944 540.894 50.944C539.742 50.944 538.494 51.36 537.15 52.192C535.806 52.96 534.878 53.632 534.366 54.208C532.702 55.936 531.07 58.08 529.47 60.64C527.934 63.2 526.814 65.632 526.11 67.936C525.662 69.28 525.438 70.432 525.438 71.392C525.438 72.48 525.726 73.248 526.302 73.696C526.878 74.144 527.582 74.368 528.414 74.368C529.054 74.368 529.726 74.272 530.43 74.08C531.198 73.888 531.998 73.664 532.83 73.408C534.75 72.768 536.67 71.776 538.59 70.432C540.574 69.024 542.366 67.552 543.966 66.016C545.566 64.416 546.782 63.04 547.614 61.888C547.742 62.016 547.806 62.208 547.806 62.464C547.806 62.784 547.678 63.168 547.422 63.616C547.166 64 546.974 64.32 546.846 64.576C545.502 66.368 543.742 68.224 541.566 70.144C539.39 72 537.022 73.568 534.462 74.848C531.966 76.128 529.502 76.768 527.07 76.768ZM548.025 76.768C545.657 76.768 543.993 76.32 543.033 75.424C542.073 74.528 541.593 73.376 541.593 71.968C541.593 70.112 542.201 68.064 543.417 65.824C544.633 63.52 545.785 61.6 546.873 60.064C547.961 58.592 549.177 57.216 550.521 55.936C551.929 54.592 553.433 53.44 555.033 52.48C556.057 51.84 557.433 51.168 559.161 50.464C560.953 49.696 562.457 49.312 563.673 49.312C565.145 49.312 566.169 49.664 566.745 50.368C567.321 51.008 567.609 51.808 567.609 52.768C567.609 53.536 567.481 54.336 567.225 55.168C566.969 55.936 566.681 56.672 566.361 57.376C566.169 57.76 565.881 58.048 565.497 58.24C565.113 58.368 564.921 58.304 564.921 58.048C564.921 57.728 564.953 57.44 565.017 57.184C565.081 56.928 565.113 56.64 565.113 56.32C565.113 55.104 564.825 53.92 564.249 52.768C563.737 51.552 562.937 50.944 561.849 50.944C560.697 50.944 559.449 51.36 558.105 52.192C556.761 52.96 555.833 53.632 555.321 54.208C553.657 55.936 552.025 58.08 550.425 60.64C548.889 63.2 547.769 65.632 547.065 67.936C546.617 69.28 546.393 70.432 546.393 71.392C546.393 72.48 546.681 73.248 547.257 73.696C547.833 74.144 548.537 74.368 549.369 74.368C550.009 74.368 550.681 74.272 551.385 74.08C552.153 73.888 552.953 73.664 553.785 73.408C555.705 72.768 557.625 71.776 559.545 70.432C561.529 69.024 563.321 67.552 564.921 66.016C566.521 64.416 567.737 63.04 568.569 61.888C568.697 62.016 568.761 62.208 568.761 62.464C568.761 62.784 568.633 63.168 568.377 63.616C568.121 64 567.929 64.32 567.801 64.576C566.457 66.368 564.697 68.224 562.521 70.144C560.345 72 557.977 73.568 555.417 74.848C552.921 76.128 550.457 76.768 548.025 76.768Z" fill="black"/>
<path d="M558.376 107.6C555.944 107.6 553.608 107.024 551.368 105.872C549.064 104.784 547.368 103.088 546.28 100.784C545.896 99.952 545.64 99.056 545.512 98.096C545.384 97.2 545.32 96.304 545.32 95.408V94.352C545.32 93.84 545.384 93.36 545.512 92.912C545.64 92.528 545.96 92.336 546.472 92.336C546.6 92.336 546.664 92.4 546.664 92.528C546.664 92.912 546.632 93.296 546.568 93.68C546.504 94.064 546.472 94.48 546.472 94.928C546.472 97.872 547.432 100.112 549.352 101.648C551.208 103.184 553.544 103.952 556.36 103.952C557.512 103.952 558.696 103.824 559.912 103.568C561.128 103.312 562.28 102.96 563.368 102.512C567.4 100.784 570.888 98.32 573.832 95.12C576.84 91.984 579.464 88.432 581.704 84.464C583.944 80.496 585.96 76.464 587.752 72.368C588.776 69.936 589.672 67.568 590.44 65.264C591.272 62.96 592.008 60.88 592.648 59.024C592.008 59.92 591.176 61.008 590.152 62.288C589.128 63.568 588.104 64.816 587.08 66.032C586.056 67.184 585.16 68.112 584.392 68.816C582.792 70.352 581.064 71.664 579.208 72.752C577.416 73.776 575.56 74.288 573.64 74.288C573 74.288 572.456 74.16 572.008 73.904C571.56 73.648 571.336 73.168 571.336 72.464C571.336 71.568 571.56 70.512 572.008 69.296C572.52 68.08 573.064 66.864 573.64 65.648C574.216 64.432 574.696 63.44 575.08 62.672C575.848 61.2 576.584 59.728 577.288 58.256C577.992 56.784 578.6 55.536 579.112 54.512C579.624 53.552 579.88 52.912 579.88 52.592C579.88 52.08 579.496 52.08 578.728 52.592C578.024 53.104 577.352 53.616 576.712 54.128C575.304 55.472 573.832 57.072 572.296 58.928C570.76 60.72 569.576 62.16 568.744 63.248C568.552 63.504 568.392 63.632 568.264 63.632C568.136 63.632 568.072 63.472 568.072 63.152C568.072 62.64 568.232 62.16 568.552 61.712C569.448 60.432 570.504 59.024 571.72 57.488C572.936 55.952 574.184 54.48 575.464 53.072C576.68 51.792 577.928 50.544 579.208 49.328C580.488 48.112 582.12 47.504 584.104 47.504C585.448 47.504 586.12 48.016 586.12 49.04C586.12 49.936 585.736 50.96 584.968 52.112C584.52 52.816 583.816 54 582.856 55.664C581.896 57.328 580.904 59.152 579.88 61.136C578.92 63.056 578.088 64.848 577.384 66.512C576.68 68.176 576.328 69.392 576.328 70.16C576.328 71.056 576.776 71.504 577.672 71.504C578.376 71.504 579.24 71.152 580.264 70.448C581.288 69.68 582.344 68.784 583.432 67.76C585.288 65.968 586.984 63.984 588.52 61.808C590.12 59.632 591.496 57.552 592.648 55.568C592.84 55.248 593.16 54.672 593.608 53.84C594.12 53.008 594.632 52.208 595.144 51.44C595.72 50.672 596.168 50.224 596.488 50.096C596.808 49.968 597.448 49.616 598.408 49.04C599.368 48.464 600.328 48.08 601.288 47.888C602.184 47.696 602.856 47.6 603.304 47.6C604.008 47.6 604.36 47.792 604.36 48.176C604.36 48.688 604.072 48.944 603.496 48.944C602.792 48.944 602.152 49.136 601.576 49.52C601 49.84 600.552 50.256 600.232 50.768C599.656 51.6 598.824 53.104 597.736 55.28C596.712 57.456 595.56 59.984 594.28 62.864C593.064 65.68 591.848 68.56 590.632 71.504C589.416 74.384 588.296 77.04 587.272 79.472C585.736 83.12 583.976 86.672 581.992 90.128C580.008 93.648 577.672 96.784 574.984 99.536C572.36 102.352 569.224 104.56 565.576 106.16C563.4 107.12 561 107.6 558.376 107.6Z" fill="black"/>
</svg>
