<svg width="119" height="50" viewBox="0 0 119 50" fill="none" xmlns="http://www.w3.org/2000/svg">
    <path
        d="M5.68625 48.3125C5.47792 48.2292 4.97792 48 4.18625 47.625C3.43625 47.25 2.72792 46.8125 2.06125 46.3125C1.39458 45.8125 0.915415 45.2917 0.623749 44.75C0.373749 44.2083 0.644582 43.75 1.43625 43.375C1.89458 43.7917 2.51958 44.2917 3.31125 44.875C4.14458 45.4583 4.93625 45.8958 5.68625 46.1875C7.97792 46.3125 10.2071 46.3333 12.3737 46.25C14.5404 46.125 16.6446 45.8542 18.6862 45.4375C20.7696 44.9792 22.7696 44.3125 24.6862 43.4375C26.6446 42.5208 28.5404 41.3333 30.3737 39.875C32.4154 38.1667 33.7487 36.6042 34.3737 35.1875C35.0404 33.7292 35.1654 32.3958 34.7487 31.1875C34.3737 29.9375 33.5612 28.7917 32.3112 27.75C31.1029 26.6667 29.6446 25.6667 27.9362 24.75C26.2696 23.7917 24.4779 22.9167 22.5612 22.125C20.6446 21.2917 18.8112 20.5 17.0612 19.75C15.3112 18.9583 13.7279 18.1875 12.3112 17.4375C10.8946 16.6875 9.85292 15.9167 9.18625 15.125C9.01958 14.4167 9.37375 13.5833 10.2487 12.625C11.1237 11.6667 12.3321 10.6875 13.8737 9.6875C15.4154 8.64583 17.1862 7.625 19.1862 6.625C21.1862 5.58333 23.2279 4.64583 25.3112 3.8125C27.4362 2.97917 29.4779 2.27083 31.4362 1.6875C33.4362 1.10417 35.1862 0.75 36.6862 0.625C38.1862 0.458333 39.3321 0.5625 40.1237 0.9375C40.9154 1.3125 41.1862 2.02083 40.9362 3.0625C40.6446 3.10417 39.8946 3.29167 38.6862 3.625C37.4779 3.95833 35.9987 4.375 34.2487 4.875C32.5404 5.375 30.6654 5.95833 28.6237 6.625C26.6237 7.29167 24.6446 8 22.6862 8.75C20.7279 9.45833 18.9154 10.1875 17.2487 10.9375C15.5821 11.6875 14.2696 12.4167 13.3112 13.125C12.3529 13.8333 11.8112 14.4792 11.6862 15.0625C11.6029 15.6458 12.1654 16.1458 13.3737 16.5625C19.4571 18.3958 24.2279 20.3542 27.6862 22.4375C31.1862 24.4792 33.6446 26.5625 35.0612 28.6875C36.4779 30.7708 37.0196 32.8333 36.6862 34.875C36.3529 36.9167 35.4362 38.8125 33.9362 40.5625C32.4779 42.3125 30.5612 43.875 28.1862 45.25C25.8112 46.5833 23.2904 47.625 20.6237 48.375C17.9987 49.125 15.3529 49.5208 12.6862 49.5625C10.0612 49.6042 7.72792 49.1875 5.68625 48.3125ZM38.2188 47.5625C37.9688 47.3542 38.0312 47.125 38.4062 46.875C38.8229 45.375 39.2396 43.9375 39.6562 42.5625C40.1146 41.1875 40.5938 39.8333 41.0938 38.5C41.5938 37.125 42.1146 35.75 42.6562 34.375C43.2396 32.9583 43.8438 31.4792 44.4688 29.9375C44.6771 29.5625 44.6354 29.1875 44.3438 28.8125C44.0938 28.3958 43.7812 28 43.4062 27.625C43.0729 27.2083 42.8229 26.7917 42.6562 26.375C42.5312 25.9167 42.6979 25.4583 43.1562 25C43.1979 24.9583 43.3438 24.8958 43.5938 24.8125C43.8854 24.7292 44.1979 24.6667 44.5312 24.625C44.8646 24.5417 45.1562 24.4792 45.4062 24.4375C45.6979 24.3542 45.8854 24.2917 45.9688 24.25C46.0938 24.1667 46.3229 23.9583 46.6562 23.625C47.0312 23.25 47.2604 23 47.3438 22.875C48.0104 21.75 48.6354 20.75 49.2188 19.875C49.8438 19 50.4062 18.125 50.9062 17.25C51.4479 16.375 51.9271 15.4583 52.3438 14.5C52.7604 13.5417 53.1354 12.4167 53.4688 11.125C53.5938 10.625 53.4688 10.3125 53.0938 10.1875C52.7604 10.0208 52.3646 9.875 51.9062 9.75C51.4479 9.625 51.0729 9.4375 50.7812 9.1875C50.4896 8.89583 50.4688 8.375 50.7188 7.625C50.8854 7.16667 51.6771 6.66667 53.0938 6.125C54.5521 5.58333 56.3854 5.0625 58.5938 4.5625C60.8021 4.0625 63.2812 3.60417 66.0312 3.1875C68.7812 2.77083 71.5312 2.4375 74.2812 2.1875C77.0312 1.9375 79.6562 1.79167 82.1562 1.75C84.6562 1.66667 86.7812 1.75 88.5312 2C90.2812 2.20833 91.5312 2.60417 92.2812 3.1875C93.0312 3.72917 93.0104 4.5 92.2188 5.5C91.8438 5.58333 91.4479 5.60417 91.0312 5.5625C90.6562 5.47917 90.2604 5.375 89.8438 5.25C89.4271 5.125 88.9896 5.02083 88.5312 4.9375C88.0729 4.8125 87.6354 4.77083 87.2188 4.8125C85.2188 4.97917 83.2604 5.04167 81.3438 5C79.4271 4.95833 77.5104 4.9375 75.5938 4.9375C73.6771 4.9375 71.7604 5.02083 69.8438 5.1875C67.9271 5.3125 66.0104 5.64583 64.0938 6.1875C62.7604 6.5625 61.5729 7.22917 60.5312 8.1875C59.4896 9.10417 58.4896 10.2917 57.5312 11.75C56.6146 13.1667 55.6771 14.8125 54.7188 16.6875C53.8021 18.5625 52.7604 20.625 51.5938 22.875C52.0521 23 52.9062 22.9167 54.1562 22.625C55.4479 22.3333 56.9062 21.9792 58.5312 21.5625C60.1979 21.1042 61.9479 20.6667 63.7812 20.25C65.6146 19.7917 67.3229 19.4792 68.9062 19.3125C70.5312 19.1042 71.9479 19.1042 73.1562 19.3125C74.3646 19.4792 75.1771 19.9583 75.5938 20.75C75.6354 20.8333 75.6562 20.9583 75.6562 21.125C75.6562 21.2917 75.6354 21.3958 75.5938 21.4375C73.3854 21.7708 71.0938 22.0833 68.7188 22.375C66.3854 22.625 64.0521 22.9583 61.7188 23.375C59.4271 23.7917 57.1771 24.3542 54.9688 25.0625C52.7604 25.7292 50.6771 26.6458 48.7188 27.8125C47.1354 30.6042 45.7188 33.4792 44.4688 36.4375C43.2188 39.3958 42.1146 42.3958 41.1562 45.4375C42.3646 45.0208 43.7604 44.625 45.3438 44.25C46.9688 43.8333 48.5104 43.4583 49.9688 43.125C51.4688 42.7917 52.7604 42.5208 53.8438 42.3125C54.9688 42.1042 55.6354 41.9792 55.8438 41.9375C59.3854 41.3958 62.7812 40.9792 66.0312 40.6875C69.3229 40.3542 72.7396 40.2917 76.2812 40.5C76.5729 40.5833 76.7812 40.75 76.9062 41C77.0312 41.25 77.1146 41.5417 77.1562 41.875C77.1979 42.1667 77.1979 42.4583 77.1562 42.75C77.1146 43.0417 77.0729 43.25 77.0312 43.375C72.4896 43.125 67.9688 43.2917 63.4688 43.875C59.0104 44.4583 54.5729 45.2292 50.1562 46.1875C49.4479 46.3542 48.5729 46.6458 47.5312 47.0625C46.5312 47.4792 45.4896 47.8542 44.4062 48.1875C43.3646 48.5208 42.3438 48.75 41.3438 48.875C40.3854 49 39.5729 48.8333 38.9062 48.375C38.7396 48.2917 38.5938 48.1875 38.4688 48.0625C38.3438 47.9375 38.2604 47.7708 38.2188 47.5625ZM89.1262 48.3125C86.5846 47.3125 84.8346 45.9583 83.8762 44.25C82.9179 42.5417 82.5221 40.6458 82.6887 38.5625C82.8971 36.4375 83.5637 34.1875 84.6887 31.8125C85.8554 29.3958 87.2721 26.9792 88.9387 24.5625C90.6471 22.1458 92.5221 19.7917 94.5637 17.5C96.6054 15.2083 98.6262 13.1042 100.626 11.1875C102.626 9.27083 104.501 7.60417 106.251 6.1875C108.001 4.77083 109.418 3.72917 110.501 3.0625C112.001 2.14583 113.251 1.70833 114.251 1.75C115.251 1.75 116.043 2.0625 116.626 2.6875C117.251 3.27083 117.668 4.10417 117.876 5.1875C118.126 6.22917 118.23 7.35417 118.189 8.5625C118.189 9.72917 118.064 10.9167 117.814 12.125C117.605 13.2917 117.314 14.3125 116.939 15.1875C116.605 16.0625 116.23 16.7083 115.814 17.125C115.439 17.5417 115.064 17.5625 114.689 17.1875C114.647 16.8542 114.689 16.3542 114.814 15.6875C114.939 14.9792 115.085 14.1875 115.251 13.3125C115.46 12.4375 115.647 11.5417 115.814 10.625C115.98 9.70833 116.085 8.875 116.126 8.125C116.21 7.33333 116.189 6.66667 116.064 6.125C115.98 5.58333 115.751 5.27083 115.376 5.1875C113.918 4.8125 112.168 5.16667 110.126 6.25C108.126 7.29167 106.022 8.8125 103.814 10.8125C101.647 12.7708 99.4804 15.0625 97.3137 17.6875C95.1887 20.2708 93.2512 22.9375 91.5012 25.6875C89.7512 28.4375 88.3137 31.125 87.1887 33.75C86.0637 36.3333 85.4179 38.625 85.2512 40.625C85.1262 42.5833 85.5637 44.1042 86.5637 45.1875C87.6054 46.2292 89.4179 46.5625 92.0012 46.1875C94.3762 45.8542 96.5637 45.0208 98.5637 43.6875C100.605 42.3125 102.564 40.8125 104.439 39.1875C106.355 37.5208 108.251 35.8958 110.126 34.3125C112.001 32.6875 113.96 31.4583 116.001 30.625C116.751 30.3333 117.335 30.4375 117.751 30.9375C118.21 31.4375 118.335 32.0417 118.126 32.75C117.876 33.4583 117.126 34.3958 115.876 35.5625C114.668 36.7292 113.147 37.9583 111.314 39.25C109.522 40.5 107.543 41.7708 105.376 43.0625C103.21 44.3125 101.085 45.3958 99.0012 46.3125C96.9596 47.2292 95.0429 47.8958 93.2512 48.3125C91.5012 48.7292 90.1262 48.7292 89.1262 48.3125Z"
        fill="white" />
</svg>